<svg width="28" height="28" viewBox="0 0 28 28" fill="none" xmlns="http://www.w3.org/2000/svg">
<path d="M14.0003 1.16699C11.4621 1.16699 8.98095 1.91965 6.87051 3.3298C4.76008 4.73994 3.1152 6.74424 2.14388 9.08922C1.17255 11.4342 0.91841 14.0146 1.41359 16.504C1.90876 18.9934 3.13102 21.2801 4.9258 23.0749C6.72057 24.8696 9.00725 26.0919 11.4967 26.5871C13.9861 27.0822 16.5665 26.8281 18.9114 25.8568C21.2564 24.8855 23.2607 23.2406 24.6709 21.1301C26.081 19.0197 26.8337 16.5385 26.8337 14.0003C26.8297 10.5979 25.4763 7.33607 23.0704 4.93022C20.6646 2.52437 17.4027 1.17101 14.0003 1.16699ZM14.0003 24.5003C11.9236 24.5003 9.89356 23.8845 8.16684 22.7308C6.44013 21.577 5.09432 19.9371 4.2996 18.0185C3.50488 16.0999 3.29694 13.9887 3.70209 11.9519C4.10723 9.91508 5.10726 8.04416 6.57571 6.5757C8.04416 5.10725 9.91508 4.10722 11.9519 3.70208C13.9887 3.29694 16.0999 3.50487 18.0185 4.29959C19.9371 5.09431 21.577 6.44012 22.7308 8.16684C23.8845 9.89355 24.5003 11.9236 24.5003 14.0003C24.4969 16.7841 23.3896 19.4528 21.4212 21.4212C19.4528 23.3896 16.7841 24.4969 14.0003 24.5003Z" fill="#A3A3A3"/>
<path d="M18.667 12.8337H15.167V9.33366C15.167 9.02424 15.0441 8.72749 14.8253 8.5087C14.6065 8.28991 14.3097 8.16699 14.0003 8.16699C13.6909 8.16699 13.3942 8.28991 13.1754 8.5087C12.9566 8.72749 12.8337 9.02424 12.8337 9.33366V12.8337H9.33366C9.02424 12.8337 8.72749 12.9566 8.5087 13.1754C8.28991 13.3942 8.16699 13.6909 8.16699 14.0003C8.16699 14.3097 8.28991 14.6065 8.5087 14.8253C8.72749 15.0441 9.02424 15.167 9.33366 15.167H12.8337V18.667C12.8337 18.9764 12.9566 19.2732 13.1754 19.492C13.3942 19.7107 13.6909 19.8337 14.0003 19.8337C14.3097 19.8337 14.6065 19.7107 14.8253 19.492C15.0441 19.2732 15.167 18.9764 15.167 18.667V15.167H18.667C18.9764 15.167 19.2732 15.0441 19.492 14.8253C19.7107 14.6065 19.8337 14.3097 19.8337 14.0003C19.8337 13.6909 19.7107 13.3942 19.492 13.1754C19.2732 12.9566 18.9764 12.8337 18.667 12.8337Z" fill="#A3A3A3"/>
</svg>
