<svg width="32" height="32" viewBox="0 0 32 32" fill="none" xmlns="http://www.w3.org/2000/svg">
<path d="M15.9887 20.4717C15.7576 20.4697 15.5364 20.378 15.3717 20.216L6.6444 11.4888C6.48542 11.3242 6.39746 11.1037 6.39945 10.8749C6.40144 10.646 6.49322 10.4272 6.65503 10.2653C6.81684 10.1035 7.03573 10.0118 7.26456 10.0098C7.49338 10.0078 7.71384 10.0957 7.87844 10.2547L15.9887 18.365L24.0989 10.2547C24.1795 10.1714 24.2758 10.1049 24.3822 10.0591C24.4887 10.0134 24.6032 9.98932 24.7191 9.98831C24.835 9.98731 24.9499 10.0094 25.0572 10.0533C25.1644 10.0972 25.2619 10.162 25.3438 10.2439C25.4257 10.3258 25.4905 10.4233 25.5344 10.5305C25.5783 10.6378 25.6004 10.7527 25.5994 10.8686C25.5984 10.9845 25.5743 11.099 25.5286 11.2055C25.4828 11.3119 25.4163 11.4082 25.333 11.4888L16.6057 20.216C16.441 20.378 16.2197 20.4697 15.9887 20.4717Z" fill="#141F39"/>
</svg>
