<svg width="16" height="16" viewBox="0 0 16 16" fill="none" xmlns="http://www.w3.org/2000/svg">
<rect x="-0.5" y="-0.5" width="15" height="15" rx="7.5" transform="matrix(4.37114e-08 -1 -1 -4.37114e-08 15 15)" stroke="#C3C3C3"/>
<g clip-path="url(#clip0_195_915)">
<path d="M6.50942 8.00365C6.51009 8.08066 6.54066 8.15441 6.59466 8.20932L9.50375 11.1184C9.55862 11.1714 9.6321 11.2007 9.70838 11.2001C9.78465 11.1994 9.85761 11.1688 9.91155 11.1149C9.96549 11.0609 9.99608 10.988 9.99675 10.9117C9.99741 10.8354 9.96809 10.7619 9.9151 10.7071L7.21168 8.00365L9.9151 5.30023C9.94288 5.2734 9.96504 5.24129 9.98029 5.2058C9.99553 5.17031 10.0036 5.13214 10.0039 5.09351C10.0042 5.05488 9.99687 5.01658 9.98224 4.98083C9.96762 4.94507 9.94602 4.91259 9.9187 4.88528C9.89139 4.85796 9.85891 4.83636 9.82315 4.82174C9.7874 4.80711 9.7491 4.79975 9.71047 4.80008C9.67184 4.80042 9.63367 4.80845 9.59818 4.82369C9.56269 4.83894 9.53059 4.8611 9.50375 4.88888L6.59466 7.79798C6.54066 7.85289 6.51009 7.92663 6.50942 8.00365Z" fill="#C3C3C3"/>
</g>
<defs>
<clipPath id="clip0_195_915">
<rect width="8" height="8" fill="white" transform="matrix(4.37114e-08 -1 -1 -4.37114e-08 12 12)"/>
</clipPath>
</defs>
</svg>
