<svg width="44" height="44" viewBox="0 0 44 44" fill="none" xmlns="http://www.w3.org/2000/svg">
<path d="M10.333 19.6663C10.333 22.1417 11.3163 24.5157 13.0667 26.266C14.817 28.0163 17.191 28.9997 19.6663 28.9997C21.7391 29.0022 23.7525 28.3078 25.383 27.028L30.5047 32.1613C30.6131 32.2707 30.7422 32.3575 30.8843 32.4167C31.0265 32.4759 31.179 32.5064 31.333 32.5064C31.487 32.5064 31.6395 32.4759 31.7817 32.4167C31.9238 32.3575 32.0529 32.2707 32.1613 32.1613C32.2707 32.0529 32.3575 31.9238 32.4167 31.7817C32.4759 31.6395 32.5064 31.487 32.5064 31.333C32.5064 31.179 32.4759 31.0265 32.4167 30.8843C32.3575 30.7422 32.2707 30.6131 32.1613 30.5047L27.028 25.383C28.3078 23.7525 29.0022 21.7391 28.9997 19.6663C28.9997 17.191 28.0163 14.817 26.266 13.0667C24.5157 11.3163 22.1417 10.333 19.6663 10.333C17.191 10.333 14.817 11.3163 13.0667 13.0667C11.3163 14.817 10.333 17.191 10.333 19.6663ZM19.6663 12.6663C21.0508 12.6663 22.4042 13.0769 23.5553 13.8461C24.7065 14.6152 25.6037 15.7085 26.1335 16.9876C26.6633 18.2666 26.8019 19.6741 26.5318 21.032C26.2617 22.3898 25.5951 23.6371 24.6161 24.6161C23.6371 25.5951 22.3898 26.2617 21.032 26.5318C19.6741 26.8019 18.2666 26.6633 16.9876 26.1335C15.7085 25.6037 14.6152 24.7065 13.8461 23.5553C13.0769 22.4042 12.6663 21.0508 12.6663 19.6663C12.6663 17.8098 13.4038 16.0293 14.7166 14.7166C16.0293 13.4038 17.8098 12.6663 19.6663 12.6663Z" fill="#858585"/>
</svg>
