<svg width="593" height="146" viewBox="0 0 593 146" fill="none" xmlns="http://www.w3.org/2000/svg">
<path d="M88.421 70.2692C93.5634 75.4688 97.2367 82.118 98.7753 89.5536C103.431 89.9413 107.091 93.8401 107.091 98.5948C107.091 103.61 103.024 107.677 98.0108 107.677C92.9941 107.677 88.9282 103.61 88.9282 98.5948C88.9282 94.3607 91.831 90.8154 95.7518 89.8121C93.7353 80.3917 88.0663 72.1857 80.321 66.9567C86.3522 59.7418 90.4643 49.2279 91.3604 37.2973C91.592 35.6917 91.714 34.0471 91.714 32.3732C91.714 30.6981 91.592 29.0547 91.3604 27.4479C89.105 11.9062 76.3503 0 60.9573 0C45.5571 0 32.8024 11.9123 30.5543 27.4601C30.3226 29.062 30.2019 30.7018 30.2019 32.3732C30.2019 33.0511 30.2275 33.7228 30.2665 34.3909C30.3238 35.3674 30.4177 36.3342 30.5543 37.2852C30.5762 37.5753 30.6006 37.8655 30.6262 38.1532C31.6478 49.707 35.693 59.8735 41.5619 66.9141C40.2123 67.3639 38.8822 67.8565 37.5778 68.3966C29.9995 74.5081 25.7374 84.065 25.3851 95.8188C33.0791 96.4918 39.1834 106.004 39.1834 117.677L36.3379 120.094C36.5781 120.466 36.7207 120.906 36.7207 121.384C36.7207 122.694 35.6588 123.753 34.3495 123.753C33.0425 123.753 31.9807 122.694 31.9807 121.384C31.9807 120.075 33.0425 119.014 34.3495 119.014C34.8066 119.014 35.2309 119.15 35.5942 119.376L38.0386 117.677C38.0386 106.514 31.9843 97.4647 24.5158 97.4647C17.0498 97.4647 10.9967 106.514 10.9967 117.677L13.2351 119.229C13.5325 119.094 13.8641 119.013 14.214 119.013C15.5234 119.013 16.5853 120.073 16.5853 121.381C16.5853 122.691 15.5234 123.751 14.214 123.751C12.9047 123.751 11.8428 122.691 11.8428 121.381C11.8428 120.795 12.0647 120.266 12.417 119.853L9.85436 117.673C9.85436 106.656 15.2942 97.5646 22.375 96.009C22.731 85.9791 25.6874 76.9257 32.2806 70.2594C13.9604 79.464 2.10912 97.578 0 118.923C12.1244 137.662 34.881 145.2 60.9573 145.2C87.03 145.2 109.789 137.662 121.913 118.923C119.804 97.5805 106.738 79.4713 88.421 70.2692ZM41.9862 19.8306C41.9862 19.8306 63.2396 30.1666 77.5316 19.8306C77.5316 19.8306 86.0145 33.251 83.6335 38.525L87.9492 33.5668C87.9309 34.8847 87.831 36.1806 87.6469 37.4485C86.1742 57.0756 74.7873 72.349 60.9573 72.349C47.3517 72.349 36.1099 57.5669 34.3458 38.3982C35.543 38.6994 37.0121 39.2809 38.6116 40.3976C38.6116 40.3976 35.5723 22.3616 41.9862 19.8306ZM60.3758 92.632L43.2212 68.7647C48.2246 73.9766 54.3435 77.0525 60.9573 77.0525C67.1286 77.0525 72.8684 74.374 77.673 69.7827L60.3758 92.632ZM85.8438 120.265H79.7651V126.343H74.585V120.265H68.5087V115.086H74.585V109.008H79.7651V115.086H85.8438V120.265Z" fill="url(#paint0_linear_5_29)"/>
<path d="M98.0109 104.562C101.306 104.562 103.976 101.892 103.976 98.5935C103.976 95.7394 101.968 93.3633 99.2898 92.7757C98.8741 92.6867 98.4498 92.6318 98.0109 92.6318C97.4001 92.6318 96.8247 92.7501 96.2712 92.9183C93.8305 93.6657 92.042 95.9089 92.042 98.5935C92.0432 101.891 94.7156 104.562 98.0109 104.562Z" fill="url(#paint1_linear_5_29)"/>
<path d="M173.87 50.7312C179.735 50.7312 184.317 51.9157 187.617 54.2844C190.916 56.6531 192.763 60.1216 193.158 64.6898H181.737C181.568 62.6031 180.807 61.0944 179.453 60.1639C178.1 59.2333 176.126 58.768 173.531 58.768C171.275 58.768 169.598 59.1064 168.498 59.7832C167.398 60.46 166.848 61.4751 166.848 62.8287C166.848 63.8438 167.215 64.6898 167.948 65.3666C168.681 66.0434 169.795 66.6355 171.29 67.1431C172.784 67.6507 174.434 68.0737 176.238 68.4121C181.709 69.4837 185.572 70.5834 187.828 71.7113C190.084 72.8393 191.734 74.1928 192.777 75.772C193.82 77.3512 194.342 79.2969 194.342 81.6092C194.342 86.5158 192.552 90.2804 188.97 92.9029C185.389 95.5254 180.525 96.8366 174.377 96.8366C167.948 96.8366 162.942 95.4549 159.361 92.6914C155.78 89.9278 153.933 86.1774 153.82 81.44H165.241C165.241 83.6959 166.115 85.4866 167.863 86.8119C169.612 88.1372 171.811 88.7999 174.462 88.7999C176.718 88.7999 178.593 88.3065 180.088 87.3195C181.582 86.3325 182.329 84.9648 182.329 83.2164C182.329 82.0885 181.864 81.1579 180.934 80.4247C180.003 79.6915 178.692 79.0429 177 78.4789C175.308 77.9149 172.685 77.2663 169.132 76.5331C166.312 75.9691 163.803 75.2077 161.603 74.249C159.404 73.2903 157.726 72.0354 156.57 70.4845C155.414 68.9336 154.835 67.0302 154.835 64.7742C154.835 61.8979 155.526 59.3884 156.908 57.2451C158.29 55.1018 160.405 53.4805 163.253 52.3808C166.101 51.281 169.64 50.7312 173.87 50.7312ZM213.715 35.25V45.1478H201.702V35.25H213.715ZM213.715 51.9156V95.6522H201.702V51.9156H213.715ZM248.4 50.7312C254.773 50.7312 259.031 53.1563 261.174 58.0066C264.501 53.1562 268.928 50.7312 274.455 50.7312C279.926 50.7312 283.945 52.1129 286.51 54.8765C289.076 57.64 290.36 61.4467 290.36 66.2971V95.6522H278.347V70.3577C278.347 66.5227 277.769 63.8721 276.613 62.4056C275.456 60.9391 273.581 60.2061 270.987 60.2061C265.629 60.2061 262.95 63.8719 262.95 71.2037V95.6522H250.937V69.8501C250.937 66.1279 250.345 63.59 249.161 62.2364C247.977 60.8829 246.144 60.2061 243.662 60.2061C241.35 60.2061 239.418 61.1225 237.867 62.9555C236.316 64.7884 235.541 67.1993 235.541 70.1885V95.6522H223.528V51.9156H234.864V57.8374H235.033C238.361 53.0999 242.816 50.7312 248.4 50.7312ZM324.452 50.7312C330.487 50.7312 335.308 52.8462 338.918 57.076C342.528 61.3058 344.332 67.0305 344.332 74.2492C344.332 80.8477 342.598 86.2619 339.13 90.4918C335.661 94.7216 330.994 96.8365 325.129 96.8365C319.376 96.8365 315.005 94.637 312.016 90.238H311.847V111.049H299.834V51.9156H311.255V57.499H311.424C314.3 52.987 318.643 50.7312 324.452 50.7312ZM311.424 73.9108C311.424 78.1969 312.327 81.5808 314.131 84.0624C315.936 86.5441 318.53 87.7847 321.914 87.7847C325.411 87.7847 328.019 86.5439 329.739 84.0624C331.46 81.5809 332.32 78.1969 332.32 73.9108C332.32 69.5117 331.389 66.0572 329.528 63.5477C327.667 61.0381 325.073 59.7831 321.745 59.7831C318.417 59.7831 315.866 61.0239 314.089 63.5054C312.313 65.9868 311.424 69.4555 311.424 73.9108ZM363.874 35.25V95.6522H351.861V35.25H363.874ZM393.568 50.7312C397.685 50.7312 401.351 51.6899 404.565 53.6074C407.78 55.525 410.304 58.3026 412.137 61.9402C413.97 65.5779 414.886 69.7654 414.886 74.5029C414.886 74.954 414.858 75.6872 414.802 76.7024H383.247C383.36 80.199 384.276 82.9203 385.996 84.866C387.716 86.8117 390.353 87.7846 393.906 87.7846C396.106 87.7846 398.122 87.2347 399.955 86.1349C401.788 85.0352 402.958 83.6958 403.465 82.1166H414.04C410.938 91.9298 404.114 96.8364 393.568 96.8364C389.563 96.78 385.855 95.9059 382.443 94.2139C379.031 92.522 376.31 89.8855 374.28 86.3041C372.249 82.7227 371.234 78.5635 371.234 73.8261C371.234 69.3708 372.263 65.3097 374.322 61.6441C376.38 57.9786 379.116 55.2431 382.528 53.4382C385.94 51.6334 389.62 50.7312 393.568 50.7312ZM402.789 69.0888C402.225 65.8176 401.181 63.4491 399.659 61.9826C398.136 60.5161 395.965 59.7831 393.145 59.7831C390.212 59.7831 387.9 60.6149 386.208 62.2787C384.516 63.9425 383.529 66.2125 383.247 69.0888H402.789ZM468.351 35.25V46.4168H436.458V59.3601H465.729V69.6809H436.458V84.4854H469.028V95.6522H423.177V35.25H468.351ZM491.277 35.25V58.4295H515.726V35.25H529.007V95.6522H515.726V69.5963H491.277V95.6522H477.995V35.25H491.277ZM573.251 35.25C578.327 35.25 582.544 36.815 585.899 39.9451C589.254 43.0752 590.932 47.0652 590.932 51.9156C590.932 59.473 587.746 64.5205 581.373 67.0584V67.2276C583.516 67.848 585.194 68.8773 586.406 70.3154C587.619 71.7536 588.535 73.4314 589.156 75.3489C589.776 77.2665 590.171 80.3401 590.34 84.57C590.566 90.0971 591.355 93.791 592.709 95.6522H579.427C578.694 93.791 578.13 90.2942 577.735 85.1622C577.284 79.748 576.297 76.2093 574.774 74.5453C573.251 72.8812 570.77 72.0496 567.33 72.0496H553.963V95.6522H540.682V35.25H573.251ZM568.599 62.5748C571.419 62.5748 573.632 61.9403 575.24 60.6714C576.847 59.4024 577.651 57.1606 577.651 53.9459C577.651 50.9004 576.861 48.7432 575.282 47.4742C573.703 46.2053 571.447 45.5708 568.514 45.5708H553.963V62.5748H568.599Z" fill="url(#paint2_linear_5_29)"/>
<defs>
<linearGradient id="paint0_linear_5_29" x1="0.103668" y1="72.7307" x2="122.121" y2="72.7307" gradientUnits="userSpaceOnUse">
<stop stop-color="#3E64FF"/>
<stop offset="1" stop-color="#4285F4"/>
</linearGradient>
<linearGradient id="paint1_linear_5_29" x1="92.0521" y1="98.6078" x2="103.997" y2="98.6078" gradientUnits="userSpaceOnUse">
<stop stop-color="#3E64FF"/>
<stop offset="1" stop-color="#4285F4"/>
</linearGradient>
<linearGradient id="paint2_linear_5_29" x1="154.194" y1="73.2176" x2="593.455" y2="73.2176" gradientUnits="userSpaceOnUse">
<stop stop-color="#3E64FF"/>
<stop offset="1" stop-color="#4285F4"/>
</linearGradient>
</defs>
</svg>
