<svg width="32" height="33" viewBox="0 0 32 33" fill="none" xmlns="http://www.w3.org/2000/svg">
<path d="M8.28994 24.2099C8.3829 24.3037 8.4935 24.3781 8.61536 24.4288C8.73722 24.4796 8.86793 24.5057 8.99994 24.5057C9.13195 24.5057 9.26266 24.4796 9.38452 24.4288C9.50638 24.3781 9.61698 24.3037 9.70994 24.2099L15.9999 17.9099L22.2899 24.2099C22.3829 24.3037 22.4935 24.3781 22.6154 24.4288C22.7372 24.4796 22.8679 24.5057 22.9999 24.5057C23.132 24.5057 23.2627 24.4796 23.3845 24.4288C23.5064 24.3781 23.617 24.3037 23.7099 24.2099C23.8037 24.117 23.8781 24.0064 23.9288 23.8845C23.9796 23.7627 24.0057 23.632 24.0057 23.4999C24.0057 23.3679 23.9796 23.2372 23.9288 23.1154C23.8781 22.9935 23.8037 22.8829 23.7099 22.7899L17.4099 16.4999L23.7099 10.2099C23.8982 10.0216 24.004 9.76624 24.004 9.49994C24.004 9.23364 23.8982 8.97824 23.7099 8.78994C23.5216 8.60164 23.2662 8.49585 22.9999 8.49585C22.7336 8.49585 22.4782 8.60164 22.2899 8.78994L15.9999 15.0899L9.70994 8.78994C9.52164 8.60164 9.26624 8.49585 8.99994 8.49585C8.73364 8.49585 8.47824 8.60164 8.28994 8.78994C8.10164 8.97824 7.99585 9.23364 7.99585 9.49994C7.99585 9.76624 8.10164 10.0216 8.28994 10.2099L14.5899 16.4999L8.28994 22.7899C8.19621 22.8829 8.12182 22.9935 8.07105 23.1154C8.02028 23.2372 7.99414 23.3679 7.99414 23.4999C7.99414 23.632 8.02028 23.7627 8.07105 23.8845C8.12182 24.0064 8.19621 24.117 8.28994 24.2099Z" fill="#858585"/>
</svg>
