<svg width="28" height="28" viewBox="0 0 28 28" fill="none" xmlns="http://www.w3.org/2000/svg">
<path d="M23.6172 4.46983C23.4101 4.23999 23.1203 4.10177 22.8114 4.08558C22.5025 4.0694 22.1998 4.17655 21.9698 4.3835L11.1257 14.1427L6.07517 9.09216C5.96755 8.98074 5.83882 8.89186 5.69648 8.83071C5.55414 8.76957 5.40105 8.73739 5.24614 8.73604C5.09123 8.73469 4.9376 8.76421 4.79423 8.82287C4.65085 8.88153 4.52059 8.96816 4.41104 9.0777C4.3015 9.18725 4.21487 9.31751 4.15621 9.46089C4.09755 9.60426 4.06803 9.75789 4.06938 9.9128C4.07073 10.0677 4.10291 10.2208 4.16405 10.3631C4.2252 10.5055 4.31408 10.6342 4.42551 10.7418L10.2588 16.5752C10.4701 16.7864 10.7544 16.9085 11.0531 16.9163C11.3518 16.9241 11.6421 16.8171 11.8642 16.6172L23.5308 6.11716C23.7607 5.91013 23.8989 5.62029 23.9151 5.31137C23.9313 5.00246 23.8241 4.69976 23.6172 4.46983Z" fill="#A3A3A3"/>
<path d="M21.9695 11.3831L11.1253 21.1422L6.07482 16.0917C5.85478 15.8792 5.56008 15.7616 5.25419 15.7643C4.94829 15.7669 4.65567 15.8896 4.43937 16.1059C4.22306 16.3222 4.10036 16.6149 4.0977 16.9208C4.09504 17.2266 4.21264 17.5213 4.42515 17.7414L10.2585 23.5747C10.4698 23.786 10.7541 23.9081 11.0528 23.9159C11.3515 23.9237 11.6418 23.8166 11.8638 23.6167L23.5305 13.1167C23.7534 12.9079 23.8855 12.62 23.8985 12.3149C23.9114 12.0097 23.8042 11.7116 23.5999 11.4846C23.3955 11.2577 23.1103 11.1199 22.8054 11.1009C22.5006 11.0819 22.2005 11.1832 21.9695 11.3831Z" fill="#A3A3A3"/>
</svg>
