<svg width="26" height="26" viewBox="0 0 26 26" fill="none" xmlns="http://www.w3.org/2000/svg">
<path d="M7.584 13.0003V17.3336C7.584 17.6209 7.69814 17.8965 7.9013 18.0996C8.10447 18.3028 8.38002 18.4169 8.66734 18.4169H13.0007C13.1432 18.4178 13.2846 18.3904 13.4166 18.3365C13.5486 18.2826 13.6686 18.2032 13.7698 18.1028L21.6673 10.2161C22.3594 9.51466 22.7473 8.56894 22.7473 7.5836C22.7473 6.59825 22.3594 5.65253 21.6673 4.9511L21.0498 4.3336C20.338 3.66166 19.3962 3.28735 18.4173 3.28735C17.4385 3.28735 16.4967 3.66166 15.7848 4.3336L7.89817 12.2311C7.79776 12.3323 7.71833 12.4524 7.66442 12.5844C7.61051 12.7164 7.58318 12.8577 7.584 13.0003ZM9.75067 13.4444L17.334 5.8611C17.6273 5.58536 18.0148 5.43184 18.4173 5.43184C18.8199 5.43184 19.2073 5.58536 19.5007 5.8611L20.1073 6.46776C20.3931 6.75589 20.5535 7.14527 20.5535 7.5511C20.5535 7.95692 20.3931 8.3463 20.1073 8.63443L12.524 16.2178H9.75067V13.4444Z" fill="#A2A7AE"/>
<path d="M21.6667 13C21.3793 13 21.1038 13.1141 20.9006 13.3173C20.6975 13.5205 20.5833 13.796 20.5833 14.0833V19.5C20.5833 19.7873 20.4692 20.0629 20.266 20.266C20.0629 20.4692 19.7873 20.5833 19.5 20.5833H6.5C6.21268 20.5833 5.93713 20.4692 5.73397 20.266C5.5308 20.0629 5.41667 19.7873 5.41667 19.5V6.5C5.41667 6.21268 5.5308 5.93713 5.73397 5.73397C5.93713 5.5308 6.21268 5.41667 6.5 5.41667H11.9167C12.204 5.41667 12.4795 5.30253 12.6827 5.09937C12.8859 4.8962 13 4.62065 13 4.33333C13 4.04602 12.8859 3.77047 12.6827 3.5673C12.4795 3.36414 12.204 3.25 11.9167 3.25H6.5C5.63805 3.25 4.8114 3.59241 4.2019 4.2019C3.59241 4.8114 3.25 5.63805 3.25 6.5V19.5C3.25 20.362 3.59241 21.1886 4.2019 21.7981C4.8114 22.4076 5.63805 22.75 6.5 22.75H19.5C20.362 22.75 21.1886 22.4076 21.7981 21.7981C22.4076 21.1886 22.75 20.362 22.75 19.5V14.0833C22.75 13.796 22.6359 13.5205 22.4327 13.3173C22.2295 13.1141 21.954 13 21.6667 13Z" fill="#A2A7AE"/>
</svg>
