<svg width="32" height="32" viewBox="0 0 32 32" fill="none" xmlns="http://www.w3.org/2000/svg">
<path d="M4 10.6663V26.6663C4 27.02 4.14048 27.3591 4.39052 27.6092C4.64057 27.8592 4.97971 27.9997 5.33333 27.9997H12C12.3536 27.9997 12.6928 27.8592 12.9428 27.6092C13.1929 27.3591 13.3333 27.02 13.3333 26.6663V17.333H18.6667V26.6663C18.6667 27.02 18.8071 27.3591 19.0572 27.6092C19.3072 27.8592 19.6464 27.9997 20 27.9997H26.6667C27.0203 27.9997 27.3594 27.8592 27.6095 27.6092C27.8595 27.3591 28 27.02 28 26.6663V10.6663C28 10.4593 27.9518 10.2552 27.8592 10.0701C27.7667 9.88492 27.6323 9.72387 27.4667 9.59968L16.8 1.59967C16.5692 1.42658 16.2885 1.33301 16 1.33301C15.7115 1.33301 15.4308 1.42658 15.2 1.59967L4.53333 9.59968C4.36774 9.72387 4.23333 9.88492 4.14076 10.0701C4.04819 10.2552 4 10.4593 4 10.6663ZM6.66667 11.333L16 4.33301L25.3333 11.333V25.333H21.3333V15.9997C21.3333 15.6461 21.1929 15.3069 20.9428 15.0569C20.6928 14.8068 20.3536 14.6663 20 14.6663H12C11.6464 14.6663 11.3072 14.8068 11.0572 15.0569C10.8071 15.3069 10.6667 15.6461 10.6667 15.9997V25.333H6.66667V11.333Z" fill="#B1B1B1"/>
</svg>
