<svg width="32" height="32" viewBox="0 0 32 32" fill="none" xmlns="http://www.w3.org/2000/svg">
<path d="M2.6665 16L1.88564 15.3753L1.38588 16L1.88564 16.6247L2.6665 16ZM14.6665 17C15.2188 17 15.6665 16.5523 15.6665 16C15.6665 15.4478 15.2188 15 14.6665 15V17ZM7.21897 8.70868L1.88564 15.3753L3.44737 16.6247L8.78071 9.95807L7.21897 8.70868ZM1.88564 16.6247L7.21897 23.2914L8.78071 22.042L3.44737 15.3753L1.88564 16.6247ZM2.6665 17H14.6665V15H2.6665V17Z" fill="#B1B1B1"/>
<path d="M13.3335 10.8425V8.7218C13.3335 7.10346 13.3335 6.29429 13.8075 5.7348C14.2814 5.17531 15.0796 5.04228 16.6759 4.77623L22.3471 3.83102C25.5902 3.29051 27.2117 3.02025 28.2726 3.91895C29.3335 4.81764 29.3335 6.46156 29.3335 9.74939V22.2505C29.3335 25.5384 29.3335 27.1823 28.2726 28.081C27.2117 28.9797 25.5902 28.7094 22.3471 28.1689L16.6759 27.2237C15.0796 26.9576 14.2814 26.8246 13.8075 26.2651C13.3335 25.7056 13.3335 24.8965 13.3335 23.2781V21.4212" stroke="#B1B1B1" stroke-width="2"/>
</svg>
