<svg width="29" height="28" viewBox="0 0 29 28" fill="none" xmlns="http://www.w3.org/2000/svg">
<path d="M6.33333 16.3337C7.62199 16.3337 8.66666 15.289 8.66666 14.0003C8.66666 12.7117 7.62199 11.667 6.33333 11.667C5.04467 11.667 4 12.7117 4 14.0003C4 15.289 5.04467 16.3337 6.33333 16.3337Z" fill="#A3A3A3"/>
<path d="M14.5003 16.3337C15.789 16.3337 16.8337 15.289 16.8337 14.0003C16.8337 12.7117 15.789 11.667 14.5003 11.667C13.2117 11.667 12.167 12.7117 12.167 14.0003C12.167 15.289 13.2117 16.3337 14.5003 16.3337Z" fill="#A3A3A3"/>
<path d="M22.6663 16.3337C23.955 16.3337 24.9997 15.289 24.9997 14.0003C24.9997 12.7117 23.955 11.667 22.6663 11.667C21.3777 11.667 20.333 12.7117 20.333 14.0003C20.333 15.289 21.3777 16.3337 22.6663 16.3337Z" fill="#A3A3A3"/>
</svg>
