<svg width="38" height="43" viewBox="0 0 38 43" fill="none" xmlns="http://www.w3.org/2000/svg">
<path d="M31.5 42.3333C33.1576 42.3333 34.7473 41.6748 35.9194 40.5027C37.0915 39.3306 37.75 37.7409 37.75 36.0833V6.91663C37.75 5.25902 37.0915 3.66931 35.9194 2.49721C34.7473 1.32511 33.1576 0.666626 31.5 0.666626H6.5C4.8424 0.666626 3.25269 1.32511 2.08058 2.49721C0.90848 3.66931 0.25 5.25902 0.25 6.91663V36.0833C0.25 37.7409 0.90848 39.3306 2.08058 40.5027C3.25269 41.6748 4.8424 42.3333 6.5 42.3333H31.5ZM4.41667 6.91663C4.41667 6.36409 4.63616 5.83419 5.02686 5.44349C5.41756 5.05279 5.94747 4.83329 6.5 4.83329H31.5C32.0525 4.83329 32.5824 5.05279 32.9731 5.44349C33.3638 5.83419 33.5833 6.36409 33.5833 6.91663V20.6458L28.8125 15.8541C28.6188 15.6589 28.3884 15.5039 28.1345 15.3981C27.8807 15.2923 27.6084 15.2379 27.3333 15.2379C27.0583 15.2379 26.786 15.2923 26.5321 15.3981C26.2783 15.5039 26.0478 15.6589 25.8542 15.8541L16.9167 24.8125L12.1458 20.0208C11.9522 19.8255 11.7217 19.6705 11.4679 19.5648C11.214 19.459 10.9417 19.4045 10.6667 19.4045C10.3916 19.4045 10.1193 19.459 9.86546 19.5648C9.61159 19.6705 9.38117 19.8255 9.1875 20.0208L4.41667 24.8125V6.91663ZM4.41667 36.0833V30.6875L10.6667 24.4375L15.4375 29.2291C15.6312 29.4244 15.8616 29.5794 16.1155 29.6852C16.3693 29.7909 16.6416 29.8454 16.9167 29.8454C17.1917 29.8454 17.464 29.7909 17.7179 29.6852C17.9717 29.5794 18.2022 29.4244 18.3958 29.2291L27.3333 20.2708L33.5833 26.5208V36.0833C33.5833 36.6358 33.3638 37.1657 32.9731 37.5564C32.5824 37.9471 32.0525 38.1666 31.5 38.1666H6.5C5.94747 38.1666 5.41756 37.9471 5.02686 37.5564C4.63616 37.1657 4.41667 36.6358 4.41667 36.0833Z" fill="#C7D8FF"/>
</svg>
