<svg width="27" height="26" viewBox="0 0 27 26" fill="none" xmlns="http://www.w3.org/2000/svg">
<path fill-rule="evenodd" clip-rule="evenodd" d="M11.875 3.25C16.3623 3.25 20 6.88769 20 11.375C20 13.2277 19.3799 14.9355 18.336 16.3023L21.8494 19.8173C22.2724 20.2404 22.2724 20.9263 21.8494 21.3494C21.4588 21.7399 20.8443 21.7699 20.4194 21.4395L20.3173 21.3494L16.8023 17.836C15.4355 18.8799 13.7277 19.5 11.875 19.5C7.38769 19.5 3.75 15.8623 3.75 11.375C3.75 6.88769 7.38769 3.25 11.875 3.25ZM11.875 5.41667C8.5843 5.41667 5.91667 8.0843 5.91667 11.375C5.91667 14.6657 8.5843 17.3333 11.875 17.3333C13.3387 17.3333 14.6792 16.8055 15.7164 15.9299C15.7653 15.7664 15.855 15.613 15.984 15.484C16.113 15.355 16.2664 15.2653 16.4294 15.215C17.3055 14.1792 17.8333 12.8387 17.8333 11.375C17.8333 8.0843 15.1657 5.41667 11.875 5.41667Z" fill="#7E84A3"/>
</svg>
