<svg width="32" height="32" viewBox="0 0 32 32" fill="none" xmlns="http://www.w3.org/2000/svg">
<path d="M13.5991 29C13.3848 28.9779 13.1865 28.877 13.0425 28.7168C12.8985 28.5567 12.8193 28.3487 12.8201 28.1333V25.8785C12.2834 25.706 11.7609 25.4921 11.2573 25.2388L9.66875 26.828C9.58836 26.9088 9.49266 26.9728 9.38726 27.0162C9.28185 27.0596 9.16885 27.0816 9.05486 27.0808C8.82487 27.081 8.60416 26.9901 8.44097 26.828L5.17617 23.5619C5.09539 23.4814 5.03143 23.3857 4.98803 23.2803C4.94463 23.1749 4.92266 23.062 4.9234 22.948C4.92428 22.7182 5.015 22.4979 5.17617 22.3341L6.76475 20.7449C6.50713 20.243 6.29311 19.72 6.12507 19.1815H3.86668C3.63689 19.1807 3.41654 19.0899 3.2528 18.9287C3.17201 18.8483 3.10805 18.7526 3.06465 18.6472C3.02125 18.5418 2.99928 18.4288 3.00002 18.3148V13.6917C3.0009 13.4619 3.09163 13.2416 3.2528 13.0778C3.41598 12.9157 3.63669 12.8248 3.86668 12.825H6.12574C6.29827 12.2881 6.51214 11.7654 6.76542 11.2616L5.17684 9.67241C5.09606 9.592 5.0321 9.4963 4.9887 9.3909C4.9453 9.2855 4.92333 9.17251 4.92407 9.05853C4.92397 8.82855 5.01484 8.60787 5.17684 8.44464L8.44165 5.1785C8.52204 5.09768 8.61773 5.0337 8.72314 4.99029C8.82854 4.94689 8.94154 4.92494 9.05553 4.92572C9.28533 4.92653 9.50568 5.01727 9.66942 5.1785L11.258 6.76769C11.7596 6.51006 12.2825 6.29605 12.8208 6.12801V3.86668C12.8217 3.6369 12.9124 3.41658 13.0736 3.2528C13.1539 3.17198 13.2496 3.108 13.3551 3.06459C13.4605 3.02119 13.5735 2.99924 13.6874 3.00002H18.3087C18.4227 2.99954 18.5356 3.02163 18.641 3.06502C18.7463 3.1084 18.8421 3.17222 18.9226 3.25279C19.0032 3.33337 19.067 3.4291 19.1104 3.53446C19.1538 3.63983 19.1759 3.75274 19.1754 3.86668V6.12682C19.7121 6.29935 20.2346 6.51322 20.7382 6.76651L22.3268 5.17731C22.4071 5.09649 22.5028 5.03251 22.6082 4.98911C22.7137 4.9457 22.8267 4.92375 22.9406 4.92453C23.1706 4.92436 23.3913 5.01524 23.5545 5.17731L26.8193 8.44345C26.9001 8.52386 26.9641 8.61956 27.0075 8.72496C27.0509 8.83036 27.0729 8.94336 27.0721 9.05734C27.0712 9.28712 26.9805 9.50744 26.8193 9.67123L25.2359 11.2553C25.4935 11.7571 25.7076 12.2802 25.8756 12.8187H28.1333C28.3631 12.8195 28.5835 12.9102 28.7472 13.0714C28.828 13.1519 28.8919 13.2476 28.9354 13.353C28.9788 13.4584 29.0007 13.5713 29 13.6853V18.309C28.9991 18.5388 28.9084 18.7591 28.7472 18.9229C28.584 19.085 28.3633 19.1758 28.1333 19.1757H25.8744C25.7019 19.7125 25.488 20.2352 25.2347 20.7391L26.8233 22.3283C26.9041 22.4087 26.9681 22.5044 27.0115 22.6098C27.0549 22.7152 27.0768 22.8282 27.0761 22.9421C27.0762 23.1721 26.9853 23.3928 26.8233 23.556L23.5585 26.8222C23.4781 26.903 23.3824 26.967 23.277 27.0104C23.1716 27.0538 23.0586 27.0757 22.9446 27.075C22.7148 27.0741 22.4945 26.9834 22.3307 26.8222L20.7422 25.233C20.2405 25.4906 19.7177 25.7046 19.1794 25.8727V28.1333C19.1785 28.3631 19.0878 28.5834 18.9266 28.7472C18.8462 28.828 18.7505 28.892 18.6451 28.9354C18.5397 28.9788 18.4267 29.0008 18.3127 29H13.5991ZM14.5586 27.2663H17.4469V25.254C17.447 25.061 17.5124 24.8737 17.6326 24.7226C17.7534 24.5721 17.9201 24.4652 18.1072 24.4183C18.9395 24.2098 19.737 23.8814 20.4746 23.4433C20.6409 23.3448 20.8346 23.3032 21.0266 23.3246C21.2177 23.3459 21.3959 23.4314 21.5322 23.5671L22.9506 24.986L24.993 22.9427L23.5746 21.5238C23.4399 21.3869 23.3545 21.209 23.3321 21.0182C23.3113 20.8263 23.3529 20.6327 23.4508 20.4663C23.8907 19.7292 24.2192 18.9311 24.4258 18.0979C24.4728 17.9108 24.5796 17.7441 24.7302 17.6233C24.8816 17.5039 25.0686 17.4385 25.2615 17.4376H27.273V14.5482H25.2606C25.0676 14.5482 24.8803 14.4827 24.7293 14.3625C24.5788 14.2417 24.4719 14.075 24.4249 13.8879C24.2164 13.0553 23.888 12.2575 23.4499 11.5195C23.3516 11.3533 23.3099 11.1596 23.3313 10.9676C23.3526 10.7765 23.4381 10.5983 23.5737 10.462L24.9921 9.0431L22.9497 6.99983L21.5313 8.41874C21.3944 8.55352 21.2165 8.63884 21.0257 8.6612C20.8338 8.68205 20.6402 8.64044 20.4737 8.54255C19.737 8.10268 18.9392 7.77413 18.1064 7.56755C17.9192 7.52062 17.7525 7.41373 17.6318 7.26319C17.5123 7.11174 17.4469 6.92471 17.446 6.73184V4.71952H14.5584V6.7305C14.5584 6.92352 14.4929 7.11082 14.3727 7.26185C14.252 7.41239 14.0853 7.51928 13.8981 7.56621C13.0659 7.77467 12.2684 8.10311 11.5307 8.54121C11.3645 8.63963 11.1708 8.68128 10.9788 8.65986C10.7877 8.63859 10.6094 8.55311 10.4732 8.4174L9.05481 6.99849L7.01237 9.04176L8.43076 10.4607C8.56551 10.5976 8.65082 10.7754 8.67322 10.9662C8.69402 11.1582 8.65241 11.3517 8.55457 11.5182C8.11471 12.2553 7.78617 13.0534 7.57957 13.8865C7.53261 14.0737 7.42572 14.2404 7.27521 14.3611C7.12379 14.4806 6.93674 14.546 6.74386 14.5468H4.73299V17.437H6.74448C6.93751 17.437 7.12483 17.5025 7.27583 17.6227C7.42634 17.7435 7.53323 17.9102 7.58019 18.0973C7.78866 18.9299 8.1171 19.7276 8.55519 20.4656C8.65355 20.6319 8.69519 20.8256 8.67384 21.0176C8.65252 21.2087 8.56705 21.3869 8.43138 21.5232L7.01299 22.9421L9.05543 24.9854L10.4738 23.5665C10.6107 23.4317 10.7886 23.3463 10.9794 23.324C11.1713 23.3031 11.3649 23.3448 11.5314 23.4426C12.2681 23.8825 13.0659 24.2111 13.8987 24.4176C14.0859 24.4646 14.2526 24.5715 14.3734 24.722C14.4928 24.8734 14.5582 25.0605 14.5591 25.2534L14.5586 27.2663ZM16.0027 22.3542C12.5058 22.3542 9.64842 19.4957 9.64842 15.9974C9.64842 12.4991 12.5056 9.64064 16.0026 9.64064C19.4995 9.64064 22.3569 12.494 22.3569 15.9974C22.3569 19.5009 19.4995 22.3542 16.0026 22.3542H16.0027ZM16.0027 20.6205C16.9172 20.6209 17.8112 20.35 18.5717 19.8423C19.3322 19.3345 19.9251 18.6126 20.2753 17.7679C20.6255 16.9231 20.7173 15.9935 20.5391 15.0966C20.361 14.1997 19.9208 13.3757 19.2743 12.729C18.6278 12.0822 17.8041 11.6417 16.9072 11.4632C16.0104 11.2847 15.0807 11.3761 14.2358 11.726C13.3909 12.0758 12.6688 12.6684 12.1607 13.4287C11.6526 14.189 11.3814 15.0829 11.3814 15.9974C11.3795 16.6049 11.4976 17.2068 11.7291 17.7685C11.9606 18.3301 12.3009 18.8405 12.7304 19.2702C13.1599 19.6999 13.6701 20.0404 14.2316 20.2721C14.7932 20.5039 15.3951 20.6223 16.0026 20.6206L16.0027 20.6205Z" fill="#B1B1B1"/>
</svg>
