<svg width="213" height="54" viewBox="0 0 213 54" fill="none" xmlns="http://www.w3.org/2000/svg">
<path d="M31.7756 26.1623C33.6236 28.0309 34.9437 30.4204 35.4966 33.0925C37.1698 33.2318 38.485 34.6329 38.485 36.3416C38.485 38.144 37.0235 39.6056 35.2219 39.6056C33.419 39.6056 31.9579 38.144 31.9579 36.3416C31.9579 34.82 33.0011 33.546 34.4101 33.1854C33.6854 29.8 31.6481 26.851 28.8648 24.9719C31.0321 22.3791 32.5099 18.6008 32.8319 14.3133C32.9152 13.7363 32.959 13.1453 32.959 12.5437C32.959 11.9417 32.9152 11.3512 32.8319 10.7737C32.0214 5.18854 27.4378 0.909851 21.9061 0.909851C16.3717 0.909851 11.7881 5.19074 10.9802 10.7781C10.897 11.3538 10.8536 11.9431 10.8536 12.5437C10.8536 12.7873 10.8628 13.0287 10.8768 13.2688C10.8974 13.6198 10.9311 13.9672 10.9802 14.3089C10.9881 14.4132 10.9968 14.5175 11.006 14.6209C11.3732 18.7729 12.8269 22.4264 14.936 24.9566C14.451 25.1182 13.973 25.2953 13.5042 25.4893C10.7809 27.6856 9.24918 31.1201 9.12257 35.344C11.8875 35.5858 14.0812 39.0041 14.0812 43.1991L13.0586 44.0679C13.145 44.2015 13.1962 44.3597 13.1962 44.5314C13.1962 45.002 12.8146 45.3827 12.3441 45.3827C11.8744 45.3827 11.4928 45.002 11.4928 44.5314C11.4928 44.0609 11.8744 43.6797 12.3441 43.6797C12.5084 43.6797 12.6608 43.7283 12.7914 43.8098L13.6698 43.1991C13.6698 39.1876 11.4941 35.9355 8.81018 35.9355C6.12713 35.9355 3.95186 39.1876 3.95186 43.1991L4.75625 43.7568C4.86315 43.7082 4.98232 43.6793 5.10806 43.6793C5.5786 43.6793 5.9602 44.06 5.9602 44.5301C5.9602 45.0011 5.5786 45.3818 5.10806 45.3818C4.63752 45.3818 4.25591 45.0011 4.25591 44.5301C4.25591 44.3198 4.33565 44.1297 4.46227 43.9811L3.54134 43.1978C3.54134 39.2385 5.49623 35.9714 8.04084 35.4123C8.16877 31.8079 9.23122 28.5544 11.6006 26.1588C5.01693 29.4666 0.75795 35.9762 0 43.6468C4.35712 50.3812 12.5351 53.0901 21.9061 53.0901C31.2757 53.0901 39.4546 50.3812 43.8117 43.6468C43.0538 35.9771 38.358 29.4692 31.7756 26.1623ZM15.0885 8.03633C15.0885 8.03633 22.7262 11.7507 27.8623 8.03633C27.8623 8.03633 30.9108 12.8592 30.0551 14.7545L31.6061 12.9726C31.5995 13.4463 31.5636 13.912 31.4974 14.3676C30.9682 21.4209 26.8761 26.9097 21.9061 26.9097C17.0166 26.9097 12.9767 21.5975 12.3428 14.7089C12.773 14.8171 13.3009 15.0261 13.8757 15.4274C13.8757 15.4274 12.7835 8.94587 15.0885 8.03633ZM21.6971 34.1988L15.5323 25.6217C17.3303 27.4946 19.5293 28.6 21.9061 28.6C24.1238 28.6 26.1865 27.6374 27.9132 25.9875L21.6971 34.1988ZM30.8494 44.1292H28.665V46.3133H26.8034V44.1292H24.6198V42.2681H26.8034V40.0836H28.665V42.2681H30.8494V44.1292Z" fill="url(#paint0_linear_55_726)"/>
<path d="M35.2217 38.4862C36.4059 38.4862 37.3654 37.5267 37.3654 36.3411C37.3654 35.3155 36.6438 34.4616 35.6813 34.2504C35.5319 34.2184 35.3794 34.1987 35.2217 34.1987C35.0022 34.1987 34.7954 34.2412 34.5965 34.3017C33.7194 34.5703 33.0767 35.3764 33.0767 36.3411C33.0771 37.5263 34.0375 38.4862 35.2217 38.4862Z" fill="url(#paint1_linear_55_726)"/>
<path d="M62.4829 19.1411C64.5908 19.1411 66.2375 19.5668 67.4231 20.418C68.6088 21.2693 69.2726 22.5157 69.4144 24.1574H65.3102C65.2494 23.4075 64.9758 22.8653 64.4894 22.5309C64.003 22.1965 63.2936 22.0293 62.3613 22.0293C61.5506 22.0293 60.9477 22.1509 60.5524 22.3941C60.1572 22.6373 59.9596 23.0021 59.9596 23.4886C59.9596 23.8534 60.0913 24.1574 60.3548 24.4006C60.6183 24.6438 61.0186 24.8566 61.5557 25.039C62.0928 25.2214 62.6856 25.3735 63.3342 25.4951C65.3001 25.8802 66.6884 26.2754 67.4992 26.6807C68.31 27.0861 68.9027 27.5725 69.2777 28.14C69.6526 28.7075 69.8401 29.4067 69.8401 30.2377C69.8401 32.0009 69.1966 33.3538 67.9096 34.2963C66.6226 35.2387 64.8745 35.7099 62.6654 35.7099C60.3549 35.7099 58.556 35.2134 57.2691 34.2202C55.9822 33.2271 55.3184 31.8793 55.2778 30.1769H59.382C59.382 30.9876 59.6962 31.6311 60.3245 32.1074C60.9528 32.5836 61.7432 32.8218 62.6958 32.8218C63.5065 32.8218 64.1804 32.6445 64.7175 32.2898C65.2545 31.9351 65.5231 31.4436 65.5231 30.8153C65.5231 30.4099 65.3559 30.0755 65.0215 29.812C64.687 29.5485 64.2158 29.3154 63.6078 29.1128C62.9998 28.9101 62.0573 28.677 60.7805 28.4135C59.7671 28.2108 58.8652 27.9372 58.0748 27.5927C57.2843 27.2481 56.6814 26.7972 56.2659 26.2398C55.8504 25.6825 55.6426 24.9985 55.6426 24.1877C55.6426 23.1541 55.8909 22.2522 56.3875 21.482C56.884 20.7118 57.6441 20.1292 58.6676 19.7339C59.6911 19.3387 60.9629 19.1411 62.4829 19.1411ZM76.802 13.5777V17.1347H72.485V13.5777H76.802ZM76.802 19.5668V35.2843H72.485V19.5668H76.802ZM89.2665 19.1411C91.5568 19.1411 93.087 20.0126 93.8571 21.7557C95.0529 20.0126 96.6438 19.1411 98.6301 19.1411C100.596 19.1411 102.04 19.6377 102.962 20.6308C103.884 21.6239 104.346 22.9919 104.346 24.735V35.2843H100.029V26.1943C100.029 24.8161 99.8209 23.8635 99.4054 23.3365C98.9899 22.8095 98.316 22.5461 97.3837 22.5461C95.4582 22.5461 94.4955 23.8635 94.4955 26.4983V35.2843H90.1785V26.0119C90.1785 24.6742 89.9657 23.7622 89.5401 23.2757C89.1145 22.7893 88.4558 22.5461 87.564 22.5461C86.7331 22.5461 86.0389 22.8754 85.4815 23.5341C84.9241 24.1928 84.6455 25.0592 84.6455 26.1335V35.2843H80.3285V19.5668H84.4023V21.6949H84.4631C85.6589 19.9924 87.26 19.1411 89.2665 19.1411ZM116.597 19.1411C118.766 19.1411 120.499 19.9012 121.796 21.4212C123.093 22.9413 123.742 24.9986 123.742 27.5927C123.742 29.964 123.118 31.9097 121.872 33.4298C120.625 34.9499 118.948 35.7099 116.841 35.7099C114.773 35.7099 113.202 34.9194 112.128 33.3386H112.068V40.8173H107.751V19.5668H111.855V21.5733H111.916C112.949 19.9518 114.51 19.1411 116.597 19.1411ZM111.916 27.4711C111.916 29.0114 112.24 30.2275 112.888 31.1193C113.537 32.0111 114.469 32.4569 115.685 32.4569C116.942 32.4569 117.879 32.011 118.497 31.1193C119.116 30.2275 119.425 29.0114 119.425 27.4711C119.425 25.8902 119.09 24.6488 118.421 23.747C117.753 22.8451 116.82 22.3941 115.625 22.3941C114.429 22.3941 113.512 22.84 112.873 23.7317C112.235 24.6235 111.916 25.87 111.916 27.4711ZM130.764 13.5777V35.2843H126.447V13.5777H130.764ZM141.435 19.1411C142.915 19.1411 144.232 19.4857 145.387 20.1748C146.543 20.8639 147.45 21.862 148.108 23.1693C148.767 24.4766 149.096 25.9814 149.096 27.6839C149.096 27.846 149.086 28.1095 149.066 28.4743H137.726C137.767 29.7309 138.096 30.7088 138.714 31.4081C139.332 32.1073 140.28 32.4569 141.557 32.4569C142.347 32.4569 143.072 32.2593 143.73 31.8641C144.389 31.4689 144.81 30.9875 144.992 30.42H148.792C147.678 33.9466 145.225 35.7099 141.435 35.7099C139.996 35.6896 138.664 35.3754 137.437 34.7674C136.211 34.1594 135.233 33.2119 134.504 31.9249C133.774 30.6378 133.409 29.1432 133.409 27.4407C133.409 25.8396 133.779 24.3802 134.519 23.0629C135.259 21.7456 136.242 20.7626 137.468 20.114C138.694 19.4653 140.017 19.1411 141.435 19.1411ZM144.749 25.7382C144.546 24.5627 144.171 23.7115 143.624 23.1845C143.077 22.6575 142.297 22.3941 141.283 22.3941C140.229 22.3941 139.398 22.693 138.79 23.2909C138.182 23.8888 137.828 24.7046 137.726 25.7382H144.749ZM168.31 13.5777V17.5907H156.849V22.2421H167.368V25.951H156.849V31.2713H168.553V35.2843H152.076V13.5777H168.31ZM176.549 13.5777V21.9077H185.335V13.5777H190.108V35.2843H185.335V25.9206H176.549V35.2843H171.776V13.5777H176.549ZM206.008 13.5777C207.832 13.5777 209.347 14.1401 210.553 15.265C211.758 16.3898 212.362 17.8237 212.362 19.5668C212.362 22.2827 211.216 24.0966 208.926 25.0086V25.0694C209.696 25.2923 210.299 25.6622 210.735 26.1791C211.171 26.6959 211.5 27.2988 211.723 27.9879C211.946 28.677 212.088 29.7816 212.149 31.3017C212.23 33.288 212.514 34.6154 213 35.2843H208.227C207.963 34.6154 207.761 33.3588 207.619 31.5145C207.457 29.5688 207.102 28.2971 206.555 27.6991C206.008 27.1011 205.116 26.8023 203.88 26.8023H199.076V35.2843H194.303V13.5777H206.008ZM204.336 23.3973C205.349 23.3973 206.144 23.1693 206.722 22.7133C207.3 22.2573 207.589 21.4516 207.589 20.2964C207.589 19.2019 207.305 18.4267 206.737 17.9707C206.17 17.5147 205.359 17.2867 204.305 17.2867H199.076V23.3973H204.336Z" fill="url(#paint2_linear_55_726)"/>
<defs>
<linearGradient id="paint0_linear_55_726" x1="0.0372549" y1="27.0469" x2="43.8862" y2="27.0469" gradientUnits="userSpaceOnUse">
<stop stop-color="#3E64FF"/>
<stop offset="1" stop-color="#4285F4"/>
</linearGradient>
<linearGradient id="paint1_linear_55_726" x1="33.0803" y1="36.3463" x2="37.3727" y2="36.3463" gradientUnits="userSpaceOnUse">
<stop stop-color="#3E64FF"/>
<stop offset="1" stop-color="#4285F4"/>
</linearGradient>
<linearGradient id="paint2_linear_55_726" x1="55.4119" y1="27.222" x2="213.268" y2="27.222" gradientUnits="userSpaceOnUse">
<stop stop-color="#3E64FF"/>
<stop offset="1" stop-color="#4285F4"/>
</linearGradient>
</defs>
</svg>
