<svg width="32" height="32" viewBox="0 0 32 32" fill="none" xmlns="http://www.w3.org/2000/svg">
<path d="M20.6665 6.66663C22.5391 6.66663 23.4754 6.66663 24.148 7.11604C24.4392 7.3106 24.6892 7.5606 24.8838 7.85177C25.3332 8.52437 25.3332 9.46068 25.3332 11.3333V24C25.3332 26.5141 25.3332 27.7712 24.5521 28.5522C23.7711 29.3333 22.514 29.3333 19.9998 29.3333H11.9998C9.48568 29.3333 8.2286 29.3333 7.44755 28.5522C6.6665 27.7712 6.6665 26.5141 6.6665 24V11.3333C6.6665 9.46068 6.6665 8.52437 7.11592 7.85177C7.31047 7.5606 7.56048 7.3106 7.85165 7.11604C8.52425 6.66663 9.46055 6.66663 11.3332 6.66663" stroke="#B1B1B1" stroke-width="2"/>
<path d="M12 6.66667C12 5.19391 13.1939 4 14.6667 4H17.3333C18.8061 4 20 5.19391 20 6.66667C20 8.13943 18.8061 9.33333 17.3333 9.33333H14.6667C13.1939 9.33333 12 8.13943 12 6.66667Z" stroke="#B1B1B1" stroke-width="2"/>
<path d="M12 16L20 16" stroke="#B1B1B1" stroke-width="2" stroke-linecap="round"/>
<path d="M12 21.3334L17.3333 21.3334" stroke="#B1B1B1" stroke-width="2" stroke-linecap="round"/>
</svg>
