<svg width="28" height="28" viewBox="0 0 28 28" fill="none" xmlns="http://www.w3.org/2000/svg">
<path d="M4.66667 8.16699V22.167C4.66667 23.0953 5.03542 23.9855 5.69179 24.6419C6.34817 25.2982 7.23841 25.667 8.16667 25.667H19.8333C20.7616 25.667 21.6518 25.2982 22.3082 24.6419C22.9646 23.9855 23.3333 23.0953 23.3333 22.167V8.16699C23.6428 8.16699 23.9395 8.04408 24.1583 7.82528C24.3771 7.60649 24.5 7.30975 24.5 7.00033C24.5 6.69091 24.3771 6.39416 24.1583 6.17537C23.9395 5.95658 23.6428 5.83366 23.3333 5.83366H18.6667V4.66699C18.6667 3.73873 18.2979 2.8485 17.6415 2.19212C16.9852 1.53574 16.0949 1.16699 15.1667 1.16699H12.8333C11.9051 1.16699 11.0148 1.53574 10.3585 2.19212C9.70208 2.8485 9.33333 3.73873 9.33333 4.66699V5.83366H4.66667C4.35725 5.83366 4.0605 5.95658 3.84171 6.17537C3.62292 6.39416 3.5 6.69091 3.5 7.00033C3.5 7.30975 3.62292 7.60649 3.84171 7.82528C4.0605 8.04408 4.35725 8.16699 4.66667 8.16699ZM11.6667 4.66699C11.6667 4.35757 11.7896 4.06083 12.0084 3.84203C12.2272 3.62324 12.5239 3.50033 12.8333 3.50033H15.1667C15.4761 3.50033 15.7728 3.62324 15.9916 3.84203C16.2104 4.06083 16.3333 4.35757 16.3333 4.66699V5.83366H11.6667V4.66699ZM7 8.16699H21V22.167C21 22.4764 20.8771 22.7732 20.6583 22.992C20.4395 23.2107 20.1428 23.3337 19.8333 23.3337H8.16667C7.85725 23.3337 7.5605 23.2107 7.34171 22.992C7.12292 22.7732 7 22.4764 7 22.167V8.16699Z" fill="#A3A3A3"/>
<path d="M10.5002 21C10.8096 21 11.1063 20.8771 11.3251 20.6583C11.5439 20.4395 11.6668 20.1428 11.6668 19.8333V11.6667C11.6668 11.3572 11.5439 11.0605 11.3251 10.8417C11.1063 10.6229 10.8096 10.5 10.5002 10.5C10.1907 10.5 9.894 10.6229 9.6752 10.8417C9.45641 11.0605 9.3335 11.3572 9.3335 11.6667V19.8333C9.3335 20.1428 9.45641 20.4395 9.6752 20.6583C9.894 20.8771 10.1907 21 10.5002 21Z" fill="#A3A3A3"/>
<path d="M17.5002 21C17.8096 21 18.1063 20.8771 18.3251 20.6583C18.5439 20.4395 18.6668 20.1428 18.6668 19.8333V11.6667C18.6668 11.3572 18.5439 11.0605 18.3251 10.8417C18.1063 10.6229 17.8096 10.5 17.5002 10.5C17.1907 10.5 16.894 10.6229 16.6752 10.8417C16.4564 11.0605 16.3335 11.3572 16.3335 11.6667V19.8333C16.3335 20.1428 16.4564 20.4395 16.6752 20.6583C16.894 20.8771 17.1907 21 17.5002 21Z" fill="#A3A3A3"/>
</svg>
