<svg width="13" height="13" viewBox="0 0 13 13" fill="none" xmlns="http://www.w3.org/2000/svg">
<path d="M2.16667 7.04167H5.95833V10.8333C5.95833 10.977 6.0154 11.1148 6.11698 11.2164C6.21857 11.3179 6.35634 11.375 6.5 11.375C6.64366 11.375 6.78143 11.3179 6.88302 11.2164C6.9846 11.1148 7.04167 10.977 7.04167 10.8333V7.04167H10.8333C10.977 7.04167 11.1148 6.9846 11.2164 6.88302C11.3179 6.78143 11.375 6.64366 11.375 6.5C11.375 6.35634 11.3179 6.21857 11.2164 6.11698C11.1148 6.0154 10.977 5.95833 10.8333 5.95833H7.04167V2.16667C7.04167 2.02301 6.9846 1.88523 6.88302 1.78365C6.78143 1.68207 6.64366 1.625 6.5 1.625C6.35634 1.625 6.21857 1.68207 6.11698 1.78365C6.0154 1.88523 5.95833 2.02301 5.95833 2.16667V5.95833H2.16667C2.02301 5.95833 1.88523 6.0154 1.78365 6.11698C1.68207 6.21857 1.625 6.35634 1.625 6.5C1.625 6.64366 1.68207 6.78143 1.78365 6.88302C1.88523 6.9846 2.02301 7.04167 2.16667 7.04167Z" fill="#B1B1B1"/>
</svg>
