<svg width="22" height="22" viewBox="0 0 22 22" fill="none" xmlns="http://www.w3.org/2000/svg">
<path d="M14.9401 12.85C14.9401 15.0264 13.1762 16.7903 10.9998 16.7903C8.82347 16.7903 7.05957 15.0264 7.05957 12.85C7.05957 10.6736 8.82347 8.90869 10.9998 8.90869C13.1762 8.90869 14.9401 10.6737 14.9401 12.85Z" fill="#2C67F2"/>
<path d="M20.7839 4.0609H15.1852L14.7641 1.59446C14.6814 1.10462 14.2549 0.744751 13.7607 0.744751H8.24143C7.74406 0.744751 7.31973 1.10248 7.23811 1.59446L6.81703 4.0609H1.21604C0.544644 4.0609 0 4.60555 0 5.27694V20.0391C0 20.7105 0.544644 21.2551 1.21604 21.2551L20.7842 21.2541C21.4556 21.2541 22.0002 20.7094 22.0002 20.038V5.27697C22.0002 4.60557 21.4553 4.0609 20.7839 4.0609ZM3.00856 8.77143C2.22222 8.77143 1.58413 8.13334 1.58413 7.347C1.58413 6.56066 2.22222 5.92257 3.00856 5.92257C3.79491 5.92257 4.433 6.56066 4.433 7.347C4.433 8.13334 3.79491 8.77143 3.00856 8.77143ZM10.9999 18.3525C7.96082 18.3525 5.49652 15.8883 5.49652 12.8492C5.49652 9.81012 7.96079 7.34582 10.9999 7.34582C14.039 7.34582 16.5032 9.81009 16.5032 12.8492C16.5032 15.8882 14.039 18.3525 10.9999 18.3525Z" fill="#2C67F2"/>
</svg>
