<svg width="26" height="26" viewBox="0 0 26 26" fill="none" xmlns="http://www.w3.org/2000/svg">
<path d="M4.33333 7.58301V20.583C4.33333 21.445 4.67574 22.2716 5.28524 22.8811C5.89473 23.4906 6.72138 23.833 7.58333 23.833H18.4167C19.2786 23.833 20.1053 23.4906 20.7148 22.8811C21.3243 22.2716 21.6667 21.445 21.6667 20.583V7.58301C21.954 7.58301 22.2295 7.46887 22.4327 7.26571C22.6359 7.06254 22.75 6.78699 22.75 6.49967C22.75 6.21236 22.6359 5.93681 22.4327 5.73364C22.2295 5.53048 21.954 5.41634 21.6667 5.41634H17.3333V4.33301C17.3333 3.47105 16.9909 2.6444 16.3814 2.03491C15.7719 1.42542 14.9453 1.08301 14.0833 1.08301H11.9167C11.0547 1.08301 10.2281 1.42542 9.61857 2.03491C9.00908 2.6444 8.66667 3.47105 8.66667 4.33301V5.41634H4.33333C4.04602 5.41634 3.77047 5.53048 3.5673 5.73364C3.36414 5.93681 3.25 6.21236 3.25 6.49967C3.25 6.78699 3.36414 7.06254 3.5673 7.26571C3.77047 7.46887 4.04602 7.58301 4.33333 7.58301ZM10.8333 4.33301C10.8333 4.04569 10.9475 3.77014 11.1506 3.56698C11.3538 3.36381 11.6293 3.24967 11.9167 3.24967H14.0833C14.3707 3.24967 14.6462 3.36381 14.8494 3.56698C15.0525 3.77014 15.1667 4.04569 15.1667 4.33301V5.41634H10.8333V4.33301ZM6.5 7.58301H19.5V20.583C19.5 20.8703 19.3859 21.1459 19.1827 21.349C18.9795 21.5522 18.704 21.6663 18.4167 21.6663H7.58333C7.29602 21.6663 7.02047 21.5522 6.8173 21.349C6.61414 21.1459 6.5 20.8703 6.5 20.583V7.58301Z" fill="#A2A7AE"/>
<path d="M9.74984 19.5C10.0372 19.5 10.3127 19.3859 10.5159 19.1827C10.719 18.9795 10.8332 18.704 10.8332 18.4167V10.8333C10.8332 10.546 10.719 10.2705 10.5159 10.0673C10.3127 9.86414 10.0372 9.75 9.74984 9.75C9.46252 9.75 9.18697 9.86414 8.9838 10.0673C8.78064 10.2705 8.6665 10.546 8.6665 10.8333V18.4167C8.6665 18.704 8.78064 18.9795 8.9838 19.1827C9.18697 19.3859 9.46252 19.5 9.74984 19.5Z" fill="#A2A7AE"/>
<path d="M16.2498 19.5C16.5372 19.5 16.8127 19.3859 17.0159 19.1827C17.219 18.9795 17.3332 18.704 17.3332 18.4167V10.8333C17.3332 10.546 17.219 10.2705 17.0159 10.0673C16.8127 9.86414 16.5372 9.75 16.2498 9.75C15.9625 9.75 15.687 9.86414 15.4838 10.0673C15.2806 10.2705 15.1665 10.546 15.1665 10.8333V18.4167C15.1665 18.704 15.2806 18.9795 15.4838 19.1827C15.687 19.3859 15.9625 19.5 16.2498 19.5Z" fill="#A2A7AE"/>
</svg>
