<svg width="20" height="21" viewBox="0 0 20 21" fill="none" xmlns="http://www.w3.org/2000/svg">
<g clip-path="url(#clip0_65_108)">
<path d="M19.805 10.7303C19.805 10.0506 19.7499 9.36711 19.6323 8.69836H10.2V12.5492H15.6015C15.3773 13.7911 14.6571 14.8898 13.6026 15.5879V18.0866H16.825C18.7174 16.3449 19.805 13.7728 19.805 10.7303Z" fill="#4285F4"/>
<path d="M10.2 20.5007C12.897 20.5007 15.1715 19.6152 16.8287 18.0866L13.6062 15.588C12.7096 16.1979 11.5522 16.5433 10.2037 16.5433C7.5948 16.5433 5.38279 14.7833 4.58911 12.4169H1.26373V14.9927C2.96133 18.3695 6.41898 20.5007 10.2 20.5007Z" fill="#34A853"/>
<path d="M4.58546 12.4169C4.16657 11.1749 4.16657 9.83008 4.58546 8.58811V6.01233H1.26376C-0.154572 8.83798 -0.154572 12.167 1.26376 14.9927L4.58546 12.4169Z" fill="#FBBC04"/>
<path d="M10.2 4.45805C11.6257 4.436 13.0036 4.97247 14.0361 5.95722L16.8911 3.10218C15.0833 1.40459 12.6839 0.471278 10.2 0.500674C6.41898 0.500674 2.96133 2.63185 1.26373 6.01234L4.58543 8.58813C5.37544 6.21811 7.59113 4.45805 10.2 4.45805Z" fill="#EA4335"/>
</g>
<defs>
<clipPath id="clip0_65_108">
<rect width="20" height="20" fill="white" transform="translate(0 0.5)"/>
</clipPath>
</defs>
</svg>
