<svg width="28" height="28" viewBox="0 0 28 28" fill="none" xmlns="http://www.w3.org/2000/svg">
<path d="M14.8285 2.67136C14.7195 2.56323 14.5902 2.47769 14.4481 2.41963C14.3059 2.36157 14.1537 2.33214 14.0002 2.33303H3.50018C3.19076 2.33303 2.89402 2.45594 2.67522 2.67474C2.45643 2.89353 2.33352 3.19027 2.33352 3.49969V13.9997C2.33263 14.1532 2.36206 14.3054 2.42012 14.4476C2.47817 14.5897 2.56372 14.719 2.67185 14.828L14.3385 26.4947C14.447 26.604 14.576 26.6908 14.7182 26.7501C14.8603 26.8093 15.0128 26.8398 15.1668 26.8398C15.3209 26.8398 15.4734 26.8093 15.6155 26.7501C15.7577 26.6908 15.8867 26.604 15.9952 26.4947L26.4952 15.9947C26.6045 15.8862 26.6913 15.7572 26.7506 15.615C26.8098 15.4729 26.8403 15.3204 26.8403 15.1664C26.8403 15.0123 26.8098 14.8599 26.7506 14.7177C26.6913 14.5755 26.6045 14.4465 26.4952 14.338L14.8285 2.67136ZM15.1668 24.0214L4.66685 13.5214V4.66636H13.5218L24.0218 15.1664L15.1668 24.0214Z" fill="#FF5B5B"/>
<path d="M8.75 10.5C9.7165 10.5 10.5 9.7165 10.5 8.75C10.5 7.7835 9.7165 7 8.75 7C7.7835 7 7 7.7835 7 8.75C7 9.7165 7.7835 10.5 8.75 10.5Z" fill="#FF5B5B"/>
</svg>
