<svg width="48" height="48" viewBox="0 0 48 48" fill="none" xmlns="http://www.w3.org/2000/svg">
<rect width="48" height="48" rx="24" fill="#F3F4F6"/>
<path d="M32.83 20.01L26.28 14.77C25 13.75 23 13.74 21.73 14.76L15.18 20.01C14.24 20.76 13.67 22.26 13.87 23.44L15.13 30.98C15.42 32.67 16.99 34 18.7 34H29.3C30.99 34 32.59 32.64 32.88 30.97L34.14 23.43C34.32 22.26 33.75 20.76 32.83 20.01ZM24.75 30C24.75 30.41 24.41 30.75 24 30.75C23.59 30.75 23.25 30.41 23.25 30V27C23.25 26.59 23.59 26.25 24 26.25C24.41 26.25 24.75 26.59 24.75 27V30Z" fill="url(#paint0_linear_52_3272)"/>
<defs>
<linearGradient id="paint0_linear_52_3272" x1="13.8474" y1="24.018" x2="34.2077" y2="24.018" gradientUnits="userSpaceOnUse">
<stop stop-color="#3E64FF"/>
<stop offset="1" stop-color="#4285F4"/>
</linearGradient>
</defs>
</svg>
