<svg width="20" height="20" viewBox="0 0 20 20" fill="none" xmlns="http://www.w3.org/2000/svg">
<path d="M15.0002 5.83337C15.0002 4.50729 14.4734 3.23552 13.5357 2.29784C12.598 1.36016 11.3262 0.833374 10.0002 0.833374C8.67408 0.833374 7.40231 1.36016 6.46463 2.29784C5.52695 3.23552 5.00016 4.50729 5.00016 5.83337V8.48337C4.51387 8.6553 4.09266 8.97343 3.79428 9.39415C3.49589 9.81487 3.33495 10.3176 3.3335 10.8334V15.8334C3.3335 16.4964 3.59689 17.1323 4.06573 17.6011C4.53457 18.07 5.17045 18.3334 5.8335 18.3334H14.1668C14.8299 18.3334 15.4658 18.07 15.9346 17.6011C16.4034 17.1323 16.6668 16.4964 16.6668 15.8334V10.8334C16.6671 10.3162 16.507 9.8116 16.2084 9.38922C15.9099 8.96684 15.4878 8.64744 15.0002 8.47504C15.0078 8.42813 15.0078 8.38029 15.0002 8.33337V5.83337ZM6.66683 5.83337C6.66683 4.94932 7.01802 4.10147 7.64314 3.47635C8.26826 2.85123 9.11611 2.50004 10.0002 2.50004C10.8842 2.50004 11.7321 2.85123 12.3572 3.47635C12.9823 4.10147 13.3335 4.94932 13.3335 5.83337V8.33337H6.66683V5.83337ZM15.0002 10.8334V15.8334C15.0002 16.0544 14.9124 16.2663 14.7561 16.4226C14.5998 16.5789 14.3878 16.6667 14.1668 16.6667H5.8335C5.61248 16.6667 5.40052 16.5789 5.24424 16.4226C5.08796 16.2663 5.00016 16.0544 5.00016 15.8334V10.8334C5.00016 10.6124 5.08796 10.4004 5.24424 10.2441C5.40052 10.0878 5.61248 10 5.8335 10H14.1668C14.3878 10 14.5998 10.0878 14.7561 10.2441C14.9124 10.4004 15.0002 10.6124 15.0002 10.8334Z" fill="#0A2640"/>
<path d="M9.99984 11.6666C9.77882 11.6666 9.56686 11.7544 9.41058 11.9107C9.2543 12.067 9.1665 12.2789 9.1665 12.5V13.3333C9.1665 13.5543 9.2543 13.7663 9.41058 13.9225C9.56686 14.0788 9.77882 14.1666 9.99984 14.1666C10.2209 14.1666 10.4328 14.0788 10.5891 13.9225C10.7454 13.7663 10.8332 13.5543 10.8332 13.3333V12.5C10.8332 12.2789 10.7454 12.067 10.5891 11.9107C10.4328 11.7544 10.2209 11.6666 9.99984 11.6666Z" fill="#0A2640"/>
</svg>
