<svg width="20" height="20" viewBox="0 0 20 20" fill="none" xmlns="http://www.w3.org/2000/svg">
<path d="M17.2499 5.04022C17.0822 4.90662 16.8672 4.84036 16.6498 4.85528C16.4324 4.8702 16.2295 4.96514 16.0833 5.12029C15.9618 5.26854 15.8958 5.45165 15.8958 5.64024C15.8958 5.82883 15.9618 6.01195 16.0833 6.16019L17.1665 7.19981H13.3333C13.1123 7.19981 12.9003 7.28409 12.7441 7.43412C12.5878 7.58414 12.5 7.78762 12.5 7.99979C12.5 8.21196 12.5878 8.41543 12.7441 8.56546C12.9003 8.71549 13.1123 8.79977 13.3333 8.79977H17.1665L16.0833 9.83967C15.9998 9.90757 15.9313 9.99067 15.8816 10.0842C15.8318 10.1777 15.8019 10.2797 15.7935 10.3844C15.7851 10.4891 15.7985 10.5943 15.8327 10.694C15.867 10.7937 15.9215 10.8859 15.9931 10.9652C16.0647 11.0446 16.152 11.1095 16.25 11.1562C16.3479 11.203 16.4545 11.2306 16.5636 11.2375C16.6727 11.2444 16.7822 11.2305 16.8857 11.1965C16.9892 11.1626 17.0846 11.1092 17.1665 11.0396C17.2081 10.9998 17.2499 10.9998 17.2499 10.9596L19.7498 8.55963C19.8288 8.4874 19.8917 8.40053 19.9346 8.30427C19.9776 8.20801 19.9998 8.10437 19.9998 7.99965C19.9998 7.89492 19.9776 7.79128 19.9346 7.69503C19.8917 7.59877 19.8288 7.51189 19.7498 7.43966L17.2499 5.04022Z" fill="#0A2640"/>
<path d="M0.000595214 13.3997C0.00280237 14.0817 0.207889 14.749 0.591725 15.323C0.97556 15.8969 1.52217 16.3537 2.16725 16.6395L9.62528 19.9196C9.73062 19.9648 9.84345 19.992 9.9586 19.9996C10.1794 19.9991 10.391 19.9146 10.5472 19.7647C10.7033 19.6148 10.7913 19.4117 10.7919 19.1997V15.9997H11.6252C12.2876 15.9979 12.9223 15.7444 13.3907 15.2947C13.8591 14.8451 14.1231 14.2357 14.1251 13.5998V11.9998C14.1251 11.7877 14.0373 11.5842 13.881 11.4342C13.7247 11.2841 13.5128 11.1999 13.2918 11.1999C13.0708 11.1999 12.8588 11.2841 12.7026 11.4342C12.5463 11.5842 12.4585 11.7877 12.4585 11.9998V13.5998C12.4579 13.8118 12.3699 14.0149 12.2138 14.1648C12.0576 14.3147 11.846 14.3992 11.6252 14.3998H10.7919V4.80002C10.7905 4.64637 10.7425 4.49643 10.6537 4.36858C10.5649 4.24073 10.4392 4.14051 10.292 4.08018L4.66715 1.59996H11.6667C11.8875 1.60054 12.0991 1.68502 12.2553 1.83491C12.4114 1.98481 12.4994 2.18795 12.5 2.39994V3.9999C12.5 4.21207 12.5878 4.41555 12.7441 4.56557C12.9003 4.7156 13.1123 4.79988 13.3333 4.79988C13.5543 4.79988 13.7663 4.7156 13.9225 4.56557C14.0788 4.41555 14.1666 4.21207 14.1666 3.9999V2.39994C14.1646 1.76393 13.9006 1.15451 13.4321 0.704832C12.9635 0.255149 12.3287 0.00175238 11.6662 0L2.4999 0C1.83741 0.00188478 1.20262 0.255399 0.734214 0.70516C0.265805 1.15492 0.00184499 1.76437 0 2.40037L0.000595214 13.3997ZM1.66719 2.39994C1.66997 2.28866 1.69846 2.17937 1.7506 2.07995L9.16696 5.3198V17.9595L2.87525 15.1996C2.5164 15.041 2.21212 14.7874 1.99812 14.4686C1.78413 14.1497 1.6693 13.7789 1.66712 13.3997L1.66719 2.39994Z" fill="#0A2640"/>
</svg>
