<svg width="32" height="32" viewBox="0 0 32 32" fill="none" xmlns="http://www.w3.org/2000/svg">
<circle cx="15.9998" cy="10.6667" r="5.33333" stroke="#B1B1B1" stroke-width="2" stroke-linecap="round"/>
<path fill-rule="evenodd" clip-rule="evenodd" d="M20.4191 21C19.0204 20.5609 17.5191 20.3334 15.9998 20.3334C13.4933 20.3334 11.0359 20.9525 9.00752 22.1198C6.97969 23.2868 5.45712 24.9607 4.75486 26.9264C4.56905 27.4465 4.84003 28.0187 5.36012 28.2045C5.88021 28.3903 6.45246 28.1193 6.63827 27.5993C7.15147 26.1628 8.3072 24.8304 10.0051 23.8533C11.7024 22.8765 13.8101 22.3334 15.9998 22.3334C16.0569 22.3334 16.1139 22.3337 16.1709 22.3345C16.709 21.5299 17.6258 21 18.6664 21L20.4191 21ZM26.9998 27.9804C27.2544 27.7329 27.3661 27.359 27.2679 27H26.9998V27.9804Z" fill="#B1B1B1"/>
<path d="M24 18.6666L24 29.3333" stroke="#B1B1B1" stroke-width="2.5" stroke-linecap="round"/>
<path d="M29.3335 24L18.6668 24" stroke="#B1B1B1" stroke-width="2.5" stroke-linecap="round"/>
</svg>
