<svg width="32" height="33" viewBox="0 0 32 33" fill="none" xmlns="http://www.w3.org/2000/svg">
<path d="M15.3077 18.6256H14.3077C14.3077 18.9825 14.498 19.3124 14.807 19.4912L15.3077 18.6256ZM9.76923 18.6256L10.27 19.4912C10.5789 19.3124 10.7692 18.9825 10.7692 18.6256H9.76923ZM14.3077 6.80768V18.6256H16.3077V6.80768H14.3077ZM12.5385 5.03845C13.5156 5.03845 14.3077 5.83056 14.3077 6.80768H16.3077C16.3077 4.726 14.6202 3.03845 12.5385 3.03845V5.03845ZM10.7692 6.80768C10.7692 5.83056 11.5613 5.03845 12.5385 5.03845V3.03845C10.4568 3.03845 8.76923 4.726 8.76923 6.80768H10.7692ZM10.7692 18.6256V6.80768H8.76923V18.6256H10.7692ZM8 23.4231C8 21.7445 8.9108 20.2774 10.27 19.4912L9.2685 17.7599C7.31676 18.889 6 21.0017 6 23.4231H8ZM12.5385 27.9615C10.0319 27.9615 8 25.9296 8 23.4231H6C6 27.0342 8.92737 29.9615 12.5385 29.9615V27.9615ZM17.0769 23.4231C17.0769 25.9296 15.045 27.9615 12.5385 27.9615V29.9615C16.1496 29.9615 19.0769 27.0342 19.0769 23.4231H17.0769ZM14.807 19.4912C16.1661 20.2774 17.0769 21.7445 17.0769 23.4231H19.0769C19.0769 21.0017 17.7602 18.889 15.8084 17.7599L14.807 19.4912Z" fill="#858585"/>
<path d="M19.4619 15.1154H22.2311" stroke="#858585" stroke-width="2" stroke-linecap="round" stroke-linejoin="round"/>
<path d="M19.4619 10.9615H22.2311" stroke="#858585" stroke-width="2" stroke-linecap="round" stroke-linejoin="round"/>
<path d="M19.4619 6.80774H25.0004" stroke="#858585" stroke-width="2" stroke-linecap="round" stroke-linejoin="round"/>
<circle cx="12.5389" cy="23.4231" r="1.38462" fill="#858585"/>
</svg>
