<svg width="20" height="20" viewBox="0 0 20 20" fill="none" xmlns="http://www.w3.org/2000/svg">
<path d="M12.9748 9.72483C13.6879 9.1164 14.1973 8.30396 14.4343 7.39706C14.6713 6.49015 14.6245 5.53238 14.3003 4.65288C13.976 3.77338 13.3899 3.01444 12.621 2.47838C11.852 1.94231 10.9372 1.65491 9.99984 1.65491C9.06248 1.65491 8.14765 1.94231 7.3787 2.47838C6.60975 3.01444 6.02365 3.77338 5.69942 4.65288C5.37519 5.53238 5.32842 6.49015 5.56542 7.39706C5.80241 8.30396 6.31178 9.1164 7.02484 9.72483C5.45006 10.3267 4.09486 11.392 3.13819 12.7802C2.18151 14.1683 1.66837 15.814 1.6665 17.4998C1.6665 17.7208 1.7543 17.9328 1.91058 18.0891C2.06686 18.2454 2.27882 18.3332 2.49984 18.3332C2.72085 18.3332 2.93281 18.2454 3.08909 18.0891C3.24537 17.9328 3.33317 17.7208 3.33317 17.4998C3.33317 15.7317 4.03555 14.036 5.28579 12.7858C6.53604 11.5355 8.23173 10.8332 9.99984 10.8332C11.7679 10.8332 13.4636 11.5355 14.7139 12.7858C15.9641 14.036 16.6665 15.7317 16.6665 17.4998C16.6665 17.7208 16.7543 17.9328 16.9106 18.0891C17.0669 18.2454 17.2788 18.3332 17.4998 18.3332C17.7209 18.3332 17.9328 18.2454 18.0891 18.0891C18.2454 17.9328 18.3332 17.7208 18.3332 17.4998C18.3313 15.814 17.8182 14.1683 16.8615 12.7802C15.9048 11.392 14.5496 10.3267 12.9748 9.72483ZM9.99984 9.1665C9.42298 9.1665 8.85907 8.99544 8.37943 8.67495C7.89978 8.35447 7.52595 7.89894 7.30519 7.36599C7.08443 6.83304 7.02667 6.2466 7.13921 5.68082C7.25175 5.11504 7.52954 4.59534 7.93744 4.18744C8.34535 3.77953 8.86505 3.50175 9.43082 3.38921C9.9966 3.27667 10.583 3.33443 11.116 3.55518C11.6489 3.77594 12.1045 4.14978 12.425 4.62942C12.7454 5.10906 12.9165 5.67297 12.9165 6.24983C12.9165 7.02338 12.6092 7.76525 12.0622 8.31223C11.5153 8.85921 10.7734 9.1665 9.99984 9.1665Z" fill="#0A2640"/>
</svg>
